<svg width="360" height="130" viewBox="0 0 360 130" fill="none" xmlns="http://www.w3.org/2000/svg">
<path fill-rule="evenodd" clip-rule="evenodd" d="M180.018 69.1966C179.525 69.1949 179.04 69.0715 178.606 68.8372C173.771 66.2185 149.681 51.6217 149.681 20.8649V13.2258C149.675 11.8936 150.729 10.7979 152.06 10.7525C161.609 10.3646 170.811 7.07141 178.438 1.31318C179.325 0.629981 180.561 0.629981 181.448 1.31318C189.113 7.08794 198.361 10.3824 207.951 10.7554C209.274 10.8185 210.315 11.9073 210.319 13.2314V20.8649C210.319 52.0154 186.229 66.3012 181.399 68.8486C180.975 69.0769 180.5 69.1964 180.018 69.1966ZM154.063 15.0143V20.8651C154.108 39.0861 164.052 55.8428 180.024 64.6126C196.079 55.9349 206.042 39.1141 205.937 20.8649V15.0199C196.582 14.3238 187.595 11.0866 179.944 5.6577C172.327 11.07 163.38 14.3047 154.063 15.0143ZM179.317 11.2988C172.938 15.2056 165.841 17.7939 158.444 18.9109V20.865C158.407 36.322 166.283 50.7228 179.317 59.0313V11.2988Z" fill="white"/>
<path d="M101.529 103.696H97.7848V108H95.7528V97.216H102.073V98.864H97.7848V102.048H101.529V103.696ZM111.049 103.92C111.049 105.147 110.703 106.155 110.009 106.944C109.327 107.733 108.367 108.128 107.129 108.128C105.903 108.128 104.943 107.744 104.249 106.976C103.567 106.208 103.225 105.227 103.225 104.032C103.225 102.795 103.583 101.776 104.297 100.976C105.012 100.165 105.956 99.76 107.129 99.76C108.377 99.76 109.343 100.155 110.025 100.944C110.708 101.723 111.049 102.715 111.049 103.92ZM105.241 103.968C105.241 104.715 105.407 105.339 105.737 105.84C106.068 106.341 106.537 106.592 107.145 106.592C107.775 106.592 108.249 106.347 108.569 105.856C108.889 105.365 109.049 104.741 109.049 103.984C109.049 103.205 108.895 102.571 108.585 102.08C108.276 101.579 107.791 101.328 107.129 101.328C106.521 101.328 106.052 101.579 105.721 102.08C105.401 102.581 105.241 103.211 105.241 103.968ZM114.624 108H112.688L112.704 99.888H114.624V101.328C114.997 100.325 115.68 99.824 116.672 99.824C116.896 99.824 117.077 99.84 117.216 99.872V101.728C116.971 101.621 116.699 101.568 116.4 101.568C115.877 101.568 115.451 101.781 115.12 102.208C114.789 102.635 114.624 103.168 114.624 103.808V108ZM126.473 107.776C125.663 109.941 124.425 111.024 122.761 111.024C122.452 111.024 122.185 110.997 121.961 110.944V109.36C122.132 109.403 122.313 109.424 122.505 109.424C123.476 109.424 124.164 108.896 124.569 107.84L121.369 99.888H123.497L124.441 102.48C124.729 103.248 124.959 103.893 125.129 104.416C125.311 104.939 125.423 105.269 125.465 105.408L125.513 105.632C125.62 105.259 125.961 104.208 126.537 102.48L127.385 99.888H129.401L126.473 107.776ZM137.971 103.92C137.971 105.147 137.624 106.155 136.931 106.944C136.248 107.733 135.288 108.128 134.051 108.128C132.824 108.128 131.864 107.744 131.171 106.976C130.488 106.208 130.147 105.227 130.147 104.032C130.147 102.795 130.504 101.776 131.219 100.976C131.934 100.165 132.878 99.76 134.051 99.76C135.299 99.76 136.264 100.155 136.947 100.944C137.63 101.723 137.971 102.715 137.971 103.92ZM132.163 103.968C132.163 104.715 132.328 105.339 132.659 105.84C132.99 106.341 133.459 106.592 134.067 106.592C134.696 106.592 135.171 106.347 135.491 105.856C135.811 105.365 135.971 104.741 135.971 103.984C135.971 103.205 135.816 102.571 135.507 102.08C135.198 101.579 134.712 101.328 134.051 101.328C133.443 101.328 132.974 101.579 132.643 102.08C132.323 102.581 132.163 103.211 132.163 103.968ZM146.586 108H144.65V106.672C144.223 107.611 143.391 108.08 142.154 108.08C141.333 108.08 140.693 107.845 140.234 107.376C139.775 106.907 139.546 106.24 139.546 105.376V99.888H141.466V104.928C141.466 105.44 141.589 105.829 141.834 106.096C142.09 106.363 142.437 106.496 142.874 106.496C143.429 106.496 143.861 106.309 144.17 105.936C144.49 105.563 144.65 104.997 144.65 104.24V99.888H146.586V108ZM155.426 106.64C155.852 106.64 156.183 106.517 156.418 106.272C156.663 106.016 156.786 105.685 156.786 105.28V104.512H155.794C155.292 104.512 154.908 104.619 154.642 104.832C154.375 105.035 154.242 105.296 154.242 105.616C154.242 106.299 154.636 106.64 155.426 106.64ZM156.866 107.024C156.492 107.717 155.788 108.064 154.754 108.064C153.986 108.064 153.372 107.84 152.914 107.392C152.466 106.944 152.242 106.379 152.242 105.696C152.242 104.928 152.53 104.325 153.106 103.888C153.682 103.451 154.514 103.232 155.602 103.232H156.786V102.736C156.786 102.288 156.668 101.947 156.434 101.712C156.199 101.477 155.799 101.36 155.234 101.36C154.37 101.36 153.575 101.6 152.85 102.08V100.304C153.458 99.9307 154.332 99.744 155.474 99.744C157.671 99.744 158.77 100.768 158.77 102.816V108H156.866V107.024ZM167.791 108H165.871V103.008C165.871 102.475 165.743 102.075 165.487 101.808C165.231 101.531 164.884 101.392 164.447 101.392C163.946 101.392 163.524 101.589 163.183 101.984C162.842 102.368 162.671 102.923 162.671 103.648V108H160.751V99.888H162.671V101.28C163.13 100.288 163.962 99.792 165.167 99.792C165.978 99.792 166.618 100.037 167.087 100.528C167.556 101.019 167.791 101.712 167.791 102.608V108ZM171.334 103.984C171.334 104.72 171.52 105.317 171.894 105.776C172.267 106.235 172.731 106.464 173.286 106.464C173.862 106.464 174.342 106.245 174.726 105.808C175.11 105.36 175.302 104.715 175.302 103.872C175.302 103.051 175.099 102.437 174.694 102.032C174.288 101.616 173.824 101.408 173.302 101.408C172.747 101.408 172.278 101.637 171.894 102.096C171.52 102.544 171.334 103.173 171.334 103.984ZM177.222 108H175.302V106.736C174.747 107.653 173.926 108.112 172.838 108.112C171.771 108.112 170.923 107.707 170.294 106.896C169.675 106.085 169.366 105.104 169.366 103.952C169.366 102.672 169.691 101.659 170.342 100.912C171.003 100.155 171.846 99.776 172.87 99.776C173.926 99.776 174.736 100.229 175.302 101.136V96.688H177.222V108ZM187.427 107.776C186.616 109.941 185.379 111.024 183.715 111.024C183.405 111.024 183.139 110.997 182.915 110.944V109.36C183.085 109.403 183.267 109.424 183.459 109.424C184.429 109.424 185.117 108.896 185.523 107.84L182.323 99.888H184.451L185.395 102.48C185.683 103.248 185.912 103.893 186.083 104.416C186.264 104.939 186.376 105.269 186.419 105.408L186.467 105.632C186.573 105.259 186.915 104.208 187.491 102.48L188.339 99.888H190.355L187.427 107.776ZM198.924 103.92C198.924 105.147 198.578 106.155 197.884 106.944C197.202 107.733 196.242 108.128 195.004 108.128C193.778 108.128 192.818 107.744 192.124 106.976C191.442 106.208 191.1 105.227 191.1 104.032C191.1 102.795 191.458 101.776 192.172 100.976C192.887 100.165 193.831 99.76 195.004 99.76C196.252 99.76 197.218 100.155 197.9 100.944C198.583 101.723 198.924 102.715 198.924 103.92ZM193.116 103.968C193.116 104.715 193.282 105.339 193.612 105.84C193.943 106.341 194.412 106.592 195.02 106.592C195.65 106.592 196.124 106.347 196.444 105.856C196.764 105.365 196.924 104.741 196.924 103.984C196.924 103.205 196.77 102.571 196.46 102.08C196.151 101.579 195.666 101.328 195.004 101.328C194.396 101.328 193.927 101.579 193.596 102.08C193.276 102.581 193.116 103.211 193.116 103.968ZM207.539 108H205.603V106.672C205.176 107.611 204.344 108.08 203.107 108.08C202.286 108.08 201.646 107.845 201.187 107.376C200.728 106.907 200.499 106.24 200.499 105.376V99.888H202.419V104.928C202.419 105.44 202.542 105.829 202.787 106.096C203.043 106.363 203.39 106.496 203.827 106.496C204.382 106.496 204.814 106.309 205.123 105.936C205.443 105.563 205.603 104.997 205.603 104.24V99.888H207.539V108ZM211.546 108H209.61L209.626 99.888H211.546V101.328C211.919 100.325 212.602 99.824 213.594 99.824C213.818 99.824 213.999 99.84 214.138 99.872V101.728C213.893 101.621 213.621 101.568 213.322 101.568C212.799 101.568 212.373 101.781 212.042 102.208C211.711 102.635 211.546 103.168 211.546 103.808V108ZM223.395 101.328H221.779V108H219.859V101.328H218.675V99.888H219.859V99.408C219.859 98.5013 220.11 97.792 220.611 97.28C221.113 96.768 221.806 96.512 222.691 96.512C223.097 96.512 223.449 96.56 223.747 96.656V98.272C223.47 98.1653 223.203 98.112 222.947 98.112C222.169 98.112 221.779 98.5493 221.779 99.424V99.888H223.395V101.328ZM227.457 106.64C227.883 106.64 228.214 106.517 228.449 106.272C228.694 106.016 228.817 105.685 228.817 105.28V104.512H227.825C227.323 104.512 226.939 104.619 226.673 104.832C226.406 105.035 226.273 105.296 226.273 105.616C226.273 106.299 226.667 106.64 227.457 106.64ZM228.897 107.024C228.523 107.717 227.819 108.064 226.785 108.064C226.017 108.064 225.403 107.84 224.945 107.392C224.497 106.944 224.273 106.379 224.273 105.696C224.273 104.928 224.561 104.325 225.137 103.888C225.713 103.451 226.545 103.232 227.633 103.232H228.817V102.736C228.817 102.288 228.699 101.947 228.465 101.712C228.23 101.477 227.83 101.36 227.265 101.36C226.401 101.36 225.606 101.6 224.881 102.08V100.304C225.489 99.9307 226.363 99.744 227.505 99.744C229.702 99.744 230.801 100.768 230.801 102.816V108H228.897V107.024ZM244.286 108H242.35V103.024C242.35 101.936 241.934 101.392 241.102 101.392C240.686 101.392 240.313 101.573 239.982 101.936C239.662 102.299 239.502 102.869 239.502 103.648V108H237.566V103.024C237.566 101.936 237.15 101.392 236.318 101.392C235.902 101.392 235.529 101.573 235.198 101.936C234.868 102.299 234.702 102.869 234.702 103.648V108H232.782V99.888H234.702V101.168C235.161 100.251 235.924 99.792 236.99 99.792C238.174 99.792 238.942 100.304 239.294 101.328C239.508 100.837 239.828 100.459 240.254 100.192C240.681 99.9253 241.166 99.792 241.71 99.792C242.532 99.792 243.166 100.043 243.614 100.544C244.062 101.035 244.286 101.739 244.286 102.656V108ZM248.267 108H246.347V99.888H248.267V108ZM248.459 97.456C248.459 97.7867 248.347 98.064 248.123 98.288C247.899 98.512 247.627 98.624 247.307 98.624C246.987 98.624 246.715 98.512 246.491 98.288C246.267 98.064 246.155 97.7867 246.155 97.456C246.155 97.136 246.267 96.864 246.491 96.64C246.715 96.416 246.987 96.304 247.307 96.304C247.627 96.304 247.899 96.416 248.123 96.64C248.347 96.864 248.459 97.136 248.459 97.456ZM252.423 108H250.503V96.688H252.423V108ZM258.739 107.776C257.928 109.941 256.691 111.024 255.027 111.024C254.718 111.024 254.451 110.997 254.227 110.944V109.36C254.398 109.403 254.579 109.424 254.771 109.424C255.742 109.424 256.43 108.896 256.835 107.84L253.635 99.888H255.763L256.707 102.48C256.995 103.248 257.224 103.893 257.395 104.416C257.576 104.939 257.688 105.269 257.731 105.408L257.779 105.632C257.886 105.259 258.227 104.208 258.803 102.48L259.651 99.888H261.667L258.739 107.776ZM264.461 106.016C264.706 106.251 264.829 106.539 264.829 106.88C264.829 107.221 264.706 107.515 264.461 107.76C264.226 108.005 263.938 108.128 263.597 108.128C263.255 108.128 262.962 108.005 262.717 107.76C262.471 107.515 262.349 107.221 262.349 106.88C262.349 106.539 262.471 106.251 262.717 106.016C262.962 105.771 263.255 105.648 263.597 105.648C263.938 105.648 264.226 105.771 264.461 106.016Z" fill="white"/>
</svg>
